<svg xmlns="http://www.w3.org/2000/svg" xmlns:xlink="http://www.w3.org/1999/xlink" width="529.337" height="447.457" viewBox="0 0 529.337 447.457"><defs><filter id="Path_704" width="529.337" height="267.457" x="0" y="0" filterUnits="userSpaceOnUse"><feOffset dx="-10" dy="10" input="SourceAlpha"/><feGaussianBlur result="blur" stdDeviation="10"/><feFlood flood-opacity=".161"/><feComposite in2="blur" operator="in"/><feComposite in="SourceGraphic"/></filter><filter id="Path_705" width="488.337" height="226.457" x="21" y="80" filterUnits="userSpaceOnUse"><feOffset dx="-10" dy="10" input="SourceAlpha"/><feGaussianBlur result="blur-2" stdDeviation="3"/><feFlood flood-opacity=".161"/><feComposite in2="blur-2" operator="in"/><feComposite in="SourceGraphic"/></filter><filter id="Path_706" width="488.337" height="226.457" x="21" y="140" filterUnits="userSpaceOnUse"><feOffset dx="-10" dy="10" input="SourceAlpha"/><feGaussianBlur result="blur-3" stdDeviation="3"/><feFlood flood-opacity=".161"/><feComposite in2="blur-3" operator="in"/><feComposite in="SourceGraphic"/></filter><filter id="Path_707" width="529.337" height="267.457" x="0" y="60" filterUnits="userSpaceOnUse"><feOffset dx="-10" dy="10" input="SourceAlpha"/><feGaussianBlur result="blur-4" stdDeviation="10"/><feFlood flood-opacity=".161"/><feComposite in2="blur-4" operator="in"/><feComposite in="SourceGraphic"/></filter><filter id="Path_708" width="529.337" height="267.457" x="0" y="120" filterUnits="userSpaceOnUse"><feOffset dx="-10" dy="10" input="SourceAlpha"/><feGaussianBlur result="blur-5" stdDeviation="10"/><feFlood flood-opacity=".161"/><feComposite in2="blur-5" operator="in"/><feComposite in="SourceGraphic"/></filter><filter id="Path_709" width="529.337" height="267.457" x="0" y="180" filterUnits="userSpaceOnUse"><feOffset dx="-10" dy="10" input="SourceAlpha"/><feGaussianBlur result="blur-6" stdDeviation="10"/><feFlood flood-opacity=".161"/><feComposite in2="blur-6" operator="in"/><feComposite in="SourceGraphic"/></filter><filter id="Polygon_16" width="76.049" height="73.677" x="54.806" y="57.235" filterUnits="userSpaceOnUse"><feOffset dx="5" dy="2" input="SourceAlpha"/><feGaussianBlur result="blur-7" stdDeviation="3"/><feFlood flood-opacity=".161"/><feComposite in2="blur-7" operator="in"/><feComposite in="SourceGraphic"/></filter><filter id="Polygon_17" width="76.049" height="73.677" x="103.214" y="57.384" filterUnits="userSpaceOnUse"><feOffset dx="5" dy="2" input="SourceAlpha"/><feGaussianBlur result="blur-8" stdDeviation="3"/><feFlood flood-opacity=".161"/><feComposite in2="blur-8" operator="in"/><feComposite in="SourceGraphic"/></filter><filter id="Polygon_18" width="76.049" height="73.677" x="63.7" y="13.862" filterUnits="userSpaceOnUse"><feOffset dx="5" dy="2" input="SourceAlpha"/><feGaussianBlur result="blur-9" stdDeviation="3"/><feFlood flood-opacity=".161"/><feComposite in2="blur-9" operator="in"/><feComposite in="SourceGraphic"/></filter><filter id="Polygon_19" width="76.049" height="73.677" x="149.769" y="75.778" filterUnits="userSpaceOnUse"><feOffset dx="5" dy="2" input="SourceAlpha"/><feGaussianBlur result="blur-10" stdDeviation="3"/><feFlood flood-opacity=".161"/><feComposite in2="blur-10" operator="in"/><feComposite in="SourceGraphic"/></filter><filter id="Polygon_20" width="76.049" height="73.677" x="112.917" y="11.993" filterUnits="userSpaceOnUse"><feOffset dx="5" dy="2" input="SourceAlpha"/><feGaussianBlur result="blur-11" stdDeviation="3"/><feFlood flood-opacity=".161"/><feComposite in2="blur-11" operator="in"/><feComposite in="SourceGraphic"/></filter><filter id="Polygon_21" width="76.049" height="73.677" x="157.454" y="32.577" filterUnits="userSpaceOnUse"><feOffset dx="5" dy="2" input="SourceAlpha"/><feGaussianBlur result="blur-12" stdDeviation="3"/><feFlood flood-opacity=".161"/><feComposite in2="blur-12" operator="in"/><feComposite in="SourceGraphic"/></filter><filter id="Polygon_22" width="76.049" height="73.677" x="70.898" y="102.132" filterUnits="userSpaceOnUse"><feOffset dx="5" dy="2" input="SourceAlpha"/><feGaussianBlur result="blur-13" stdDeviation="3"/><feFlood flood-opacity=".161"/><feComposite in2="blur-13" operator="in"/><feComposite in="SourceGraphic"/></filter><filter id="Polygon_23" width="76.049" height="73.677" x="117.435" y="101.717" filterUnits="userSpaceOnUse"><feOffset dx="5" dy="2" input="SourceAlpha"/><feGaussianBlur result="blur-14" stdDeviation="3"/><feFlood flood-opacity=".161"/><feComposite in2="blur-14" operator="in"/><feComposite in="SourceGraphic"/></filter></defs><g id="Group_6" data-name="Group 6"><g filter="url(#Path_704)" transform="translate(-293.115 -363.215) matrix(1, 0, 0, 1, 293.12, 363.21)"><path id="Path_704-2" fill="none" stroke="#ff6f34" stroke-width="40" d="M3186.966,4953.077s184.136-46.035,279.745,84.985,169.971,49.576,169.971,49.576" data-name="Path 704" transform="translate(-3142.12 -4905.21)"/></g><g filter="url(#Path_705)" transform="translate(-293.115 -363.215) matrix(1, 0, 0, 1, 293.12, 363.21)"><path id="Path_705-2" fill="none" stroke="#707070" stroke-width="40" d="M3186.966,4953.077s184.136-46.035,279.745,84.985,169.971,49.576,169.971,49.576" data-name="Path 705" transform="translate(-3142.12 -4845.21)"/></g><g filter="url(#Path_706)" transform="translate(-293.115 -363.215) matrix(1, 0, 0, 1, 293.12, 363.21)"><path id="Path_706-2" fill="none" stroke="#707070" stroke-width="40" d="M3186.966,4953.077s184.136-46.035,279.745,84.985,169.971,49.576,169.971,49.576" data-name="Path 706" transform="translate(-3142.12 -4785.21)"/></g><g filter="url(#Path_707)" transform="translate(-293.115 -363.215) matrix(1, 0, 0, 1, 293.12, 363.21)"><path id="Path_707-2" fill="none" stroke="#f95d1c" stroke-width="40" d="M3186.966,4953.077s184.136-46.035,279.745,84.985,169.971,49.576,169.971,49.576" data-name="Path 707" transform="translate(-3142.12 -4845.21)"/></g><g filter="url(#Path_708)" transform="translate(-293.115 -363.215) matrix(1, 0, 0, 1, 293.12, 363.21)"><path id="Path_708-2" fill="none" stroke="#e04809" stroke-width="40" d="M3186.966,4953.077s184.136-46.035,279.745,84.985,169.971,49.576,169.971,49.576" data-name="Path 708" transform="translate(-3142.12 -4785.21)"/></g><g filter="url(#Path_709)" transform="translate(-293.115 -363.215) matrix(1, 0, 0, 1, 293.12, 363.21)"><path id="Path_709-2" fill="none" stroke="#c03d07" stroke-width="40" d="M3186.966,4953.077s184.136-46.035,279.745,84.985,169.971,49.576,169.971,49.576" data-name="Path 709" transform="translate(-3142.12 -4725.21)"/></g><g filter="url(#Polygon_16)" transform="translate(-293.115 -363.215) matrix(1, 0, 0, 1, 293.12, 363.21)"><g id="Polygon_16-2" fill="none" data-name="Polygon 16"><path stroke="none" d="M25,0l6.25,17.479L50,17.952,35.113,29.229,40.451,47,25,36.49,9.549,47l5.338-17.771L0,17.952l18.75-.474Z" transform="translate(67.77 64.23) rotate(11)"/><path fill="#ffd5c4" stroke="none" d="M 25 5.939960479736328 L 20.63322067260742 18.15197944641113 L 20.17147064208984 19.44330024719238 L 18.8005199432373 19.47793960571289 L 5.761524200439453 19.80743980407715 L 16.0948600769043 27.63429069519043 L 17.20246124267578 28.47322082519531 L 16.80273818969727 29.80393981933594 L 13.08676910400391 42.17493057250977 L 23.87516021728516 34.83676910400391 L 25 34.07167053222656 L 26.12483978271484 34.83676910400391 L 36.91323089599609 42.17493057250977 L 33.19725799560547 29.80393981933594 L 32.79753875732422 28.47322082519531 L 33.9051399230957 27.63429069519043 L 44.23847961425781 19.80743980407715 L 31.1994800567627 19.47793960571289 L 29.82852935791016 19.44330024719238 L 29.36677932739258 18.15197944641113 L 25 5.939960479736328 M 25 0 L 31.25 17.47858047485352 L 50 17.95240020751953 L 35.11270904541016 29.22858047485352 L 40.45085144042969 47 L 25 36.490478515625 L 9.549148559570313 47 L 14.88729095458984 29.22858047485352 L 0 17.95240020751953 L 18.75 17.47858047485352 L 25 0 Z" transform="translate(67.77 64.23) rotate(11)"/></g></g><g filter="url(#Polygon_17)" transform="translate(-293.115 -363.215) matrix(1, 0, 0, 1, 293.12, 363.21)"><g id="Polygon_17-2" fill="none" data-name="Polygon 17"><path stroke="none" d="M25,0l6.25,17.479L50,17.952,35.113,29.229,40.451,47,25,36.49,9.549,47l5.338-17.771L0,17.952l18.75-.474Z" transform="translate(116.18 64.38) rotate(11)"/><path fill="#ffd5c4" stroke="none" d="M 25 5.939960479736328 L 20.63322067260742 18.15197944641113 L 20.17147064208984 19.44330024719238 L 18.8005199432373 19.47793960571289 L 5.761524200439453 19.80743980407715 L 16.0948600769043 27.63429069519043 L 17.20246124267578 28.47322082519531 L 16.80273818969727 29.80393981933594 L 13.08676910400391 42.17493057250977 L 23.87516021728516 34.83676910400391 L 25 34.07167053222656 L 26.12483978271484 34.83676910400391 L 36.91323089599609 42.17493057250977 L 33.19725799560547 29.80393981933594 L 32.79753875732422 28.47322082519531 L 33.9051399230957 27.63429069519043 L 44.23847961425781 19.80743980407715 L 31.1994800567627 19.47793960571289 L 29.82852935791016 19.44330024719238 L 29.36677932739258 18.15197944641113 L 25 5.939960479736328 M 25 0 L 31.25 17.47858047485352 L 50 17.95240020751953 L 35.11270904541016 29.22858047485352 L 40.45085144042969 47 L 25 36.490478515625 L 9.549148559570313 47 L 14.88729095458984 29.22858047485352 L 0 17.95240020751953 L 18.75 17.47858047485352 L 25 0 Z" transform="translate(116.18 64.38) rotate(11)"/></g></g><g filter="url(#Polygon_18)" transform="translate(-293.115 -363.215) matrix(1, 0, 0, 1, 293.12, 363.21)"><g id="Polygon_18-2" fill="none" data-name="Polygon 18"><path stroke="none" d="M25,0l6.25,17.479L50,17.952,35.113,29.229,40.451,47,25,36.49,9.549,47l5.338-17.771L0,17.952l18.75-.474Z" transform="translate(76.67 20.86) rotate(11)"/><path fill="#ffd5c4" stroke="none" d="M 25 5.939960479736328 L 20.63322067260742 18.15197944641113 L 20.17147064208984 19.44330024719238 L 18.8005199432373 19.47793960571289 L 5.761524200439453 19.80743980407715 L 16.0948600769043 27.63429069519043 L 17.20246124267578 28.47322082519531 L 16.80273818969727 29.80393981933594 L 13.08676910400391 42.17493057250977 L 23.87516021728516 34.83676910400391 L 25 34.07167053222656 L 26.12483978271484 34.83676910400391 L 36.91323089599609 42.17493057250977 L 33.19725799560547 29.80393981933594 L 32.79753875732422 28.47322082519531 L 33.9051399230957 27.63429069519043 L 44.23847961425781 19.80743980407715 L 31.1994800567627 19.47793960571289 L 29.82852935791016 19.44330024719238 L 29.36677932739258 18.15197944641113 L 25 5.939960479736328 M 25 0 L 31.25 17.47858047485352 L 50 17.95240020751953 L 35.11270904541016 29.22858047485352 L 40.45085144042969 47 L 25 36.490478515625 L 9.549148559570313 47 L 14.88729095458984 29.22858047485352 L 0 17.95240020751953 L 18.75 17.47858047485352 L 25 0 Z" transform="translate(76.67 20.86) rotate(11)"/></g></g><g filter="url(#Polygon_19)" transform="translate(-293.115 -363.215) matrix(1, 0, 0, 1, 293.12, 363.21)"><g id="Polygon_19-2" fill="none" data-name="Polygon 19"><path stroke="none" d="M25,0l6.25,17.479L50,17.952,35.113,29.229,40.451,47,25,36.49,9.549,47l5.338-17.771L0,17.952l18.75-.474Z" transform="translate(162.74 82.78) rotate(11)"/><path fill="#ffd5c4" stroke="none" d="M 25 5.939960479736328 L 20.63322067260742 18.15197944641113 L 20.17147064208984 19.44330024719238 L 18.8005199432373 19.47793960571289 L 5.761524200439453 19.80743980407715 L 16.0948600769043 27.63429069519043 L 17.20246124267578 28.47322082519531 L 16.80273818969727 29.80393981933594 L 13.08676910400391 42.17493057250977 L 23.87516021728516 34.83676910400391 L 25 34.07167053222656 L 26.12483978271484 34.83676910400391 L 36.91323089599609 42.17493057250977 L 33.19725799560547 29.80393981933594 L 32.79753875732422 28.47322082519531 L 33.9051399230957 27.63429069519043 L 44.23847961425781 19.80743980407715 L 31.1994800567627 19.47793960571289 L 29.82852935791016 19.44330024719238 L 29.36677932739258 18.15197944641113 L 25 5.939960479736328 M 25 0 L 31.25 17.47858047485352 L 50 17.95240020751953 L 35.11270904541016 29.22858047485352 L 40.45085144042969 47 L 25 36.490478515625 L 9.549148559570313 47 L 14.88729095458984 29.22858047485352 L 0 17.95240020751953 L 18.75 17.47858047485352 L 25 0 Z" transform="translate(162.74 82.78) rotate(11)"/></g></g><g filter="url(#Polygon_20)" transform="translate(-293.115 -363.215) matrix(1, 0, 0, 1, 293.12, 363.21)"><g id="Polygon_20-2" fill="none" data-name="Polygon 20"><path stroke="none" d="M25,0l6.25,17.479L50,17.952,35.113,29.229,40.451,47,25,36.49,9.549,47l5.338-17.771L0,17.952l18.75-.474Z" transform="translate(125.89 18.99) rotate(11)"/><path fill="#ffd5c4" stroke="none" d="M 25 5.939960479736328 L 20.63322067260742 18.15197944641113 L 20.17147064208984 19.44330024719238 L 18.8005199432373 19.47793960571289 L 5.761524200439453 19.80743980407715 L 16.0948600769043 27.63429069519043 L 17.20246124267578 28.47322082519531 L 16.80273818969727 29.80393981933594 L 13.08676910400391 42.17493057250977 L 23.87516021728516 34.83676910400391 L 25 34.07167053222656 L 26.12483978271484 34.83676910400391 L 36.91323089599609 42.17493057250977 L 33.19725799560547 29.80393981933594 L 32.79753875732422 28.47322082519531 L 33.9051399230957 27.63429069519043 L 44.23847961425781 19.80743980407715 L 31.1994800567627 19.47793960571289 L 29.82852935791016 19.44330024719238 L 29.36677932739258 18.15197944641113 L 25 5.939960479736328 M 25 0 L 31.25 17.47858047485352 L 50 17.95240020751953 L 35.11270904541016 29.22858047485352 L 40.45085144042969 47 L 25 36.490478515625 L 9.549148559570313 47 L 14.88729095458984 29.22858047485352 L 0 17.95240020751953 L 18.75 17.47858047485352 L 25 0 Z" transform="translate(125.89 18.99) rotate(11)"/></g></g><g filter="url(#Polygon_21)" transform="translate(-293.115 -363.215) matrix(1, 0, 0, 1, 293.12, 363.21)"><g id="Polygon_21-2" fill="none" data-name="Polygon 21"><path stroke="none" d="M25,0l6.25,17.479L50,17.952,35.113,29.229,40.451,47,25,36.49,9.549,47l5.338-17.771L0,17.952l18.75-.474Z" transform="translate(170.42 39.58) rotate(11)"/><path fill="#ffd5c4" stroke="none" d="M 25 5.939960479736328 L 20.63322067260742 18.15197944641113 L 20.17147064208984 19.44330024719238 L 18.8005199432373 19.47793960571289 L 5.761524200439453 19.80743980407715 L 16.0948600769043 27.63429069519043 L 17.20246124267578 28.47322082519531 L 16.80273818969727 29.80393981933594 L 13.08676910400391 42.17493057250977 L 23.87516021728516 34.83676910400391 L 25 34.07167053222656 L 26.12483978271484 34.83676910400391 L 36.91323089599609 42.17493057250977 L 33.19725799560547 29.80393981933594 L 32.79753875732422 28.47322082519531 L 33.9051399230957 27.63429069519043 L 44.23847961425781 19.80743980407715 L 31.1994800567627 19.47793960571289 L 29.82852935791016 19.44330024719238 L 29.36677932739258 18.15197944641113 L 25 5.939960479736328 M 25 0 L 31.25 17.47858047485352 L 50 17.95240020751953 L 35.11270904541016 29.22858047485352 L 40.45085144042969 47 L 25 36.490478515625 L 9.549148559570313 47 L 14.88729095458984 29.22858047485352 L 0 17.95240020751953 L 18.75 17.47858047485352 L 25 0 Z" transform="translate(170.42 39.58) rotate(11)"/></g></g><g filter="url(#Polygon_22)" transform="translate(-293.115 -363.215) matrix(1, 0, 0, 1, 293.12, 363.21)"><g id="Polygon_22-2" fill="none" data-name="Polygon 22"><path stroke="none" d="M25,0l6.25,17.479L50,17.952,35.113,29.229,40.451,47,25,36.49,9.549,47l5.338-17.771L0,17.952l18.75-.474Z" transform="translate(83.87 109.13) rotate(11)"/><path fill="#ffd5c4" stroke="none" d="M 25 5.939960479736328 L 20.63322067260742 18.15197944641113 L 20.17147064208984 19.44330024719238 L 18.8005199432373 19.47793960571289 L 5.761524200439453 19.80743980407715 L 16.0948600769043 27.63429069519043 L 17.20246124267578 28.47322082519531 L 16.80273818969727 29.80393981933594 L 13.08676910400391 42.17493057250977 L 23.87516021728516 34.83676910400391 L 25 34.07167053222656 L 26.12483978271484 34.83676910400391 L 36.91323089599609 42.17493057250977 L 33.19725799560547 29.80393981933594 L 32.79753875732422 28.47322082519531 L 33.9051399230957 27.63429069519043 L 44.23847961425781 19.80743980407715 L 31.1994800567627 19.47793960571289 L 29.82852935791016 19.44330024719238 L 29.36677932739258 18.15197944641113 L 25 5.939960479736328 M 25 0 L 31.25 17.47858047485352 L 50 17.95240020751953 L 35.11270904541016 29.22858047485352 L 40.45085144042969 47 L 25 36.490478515625 L 9.549148559570313 47 L 14.88729095458984 29.22858047485352 L 0 17.95240020751953 L 18.75 17.47858047485352 L 25 0 Z" transform="translate(83.87 109.13) rotate(11)"/></g></g><g filter="url(#Polygon_23)" transform="translate(-293.115 -363.215) matrix(1, 0, 0, 1, 293.12, 363.21)"><g id="Polygon_23-2" fill="none" data-name="Polygon 23"><path stroke="none" d="M25,0l6.25,17.479L50,17.952,35.113,29.229,40.451,47,25,36.49,9.549,47l5.338-17.771L0,17.952l18.75-.474Z" transform="translate(130.4 108.72) rotate(11)"/><path fill="#ffd5c4" stroke="none" d="M 25 5.939960479736328 L 20.63322067260742 18.15197944641113 L 20.17147064208984 19.44330024719238 L 18.8005199432373 19.47793960571289 L 5.761524200439453 19.80743980407715 L 16.0948600769043 27.63429069519043 L 17.20246124267578 28.47322082519531 L 16.80273818969727 29.80393981933594 L 13.08676910400391 42.17493057250977 L 23.87516021728516 34.83676910400391 L 25 34.07167053222656 L 26.12483978271484 34.83676910400391 L 36.91323089599609 42.17493057250977 L 33.19725799560547 29.80393981933594 L 32.79753875732422 28.47322082519531 L 33.9051399230957 27.63429069519043 L 44.23847961425781 19.80743980407715 L 31.1994800567627 19.47793960571289 L 29.82852935791016 19.44330024719238 L 29.36677932739258 18.15197944641113 L 25 5.939960479736328 M 25 0 L 31.25 17.47858047485352 L 50 17.95240020751953 L 35.11270904541016 29.22858047485352 L 40.45085144042969 47 L 25 36.490478515625 L 9.549148559570313 47 L 14.88729095458984 29.22858047485352 L 0 17.95240020751953 L 18.75 17.47858047485352 L 25 0 Z" transform="translate(130.4 108.72) rotate(11)"/></g></g></g></svg>