<svg xmlns="http://www.w3.org/2000/svg" xmlns:xlink="http://www.w3.org/1999/xlink" width="710" height="576" viewBox="0 0 710 576"><defs><clipPath id="clip-path"><rect id="Rectangle_43" width="710" height="710" data-name="Rectangle 43"/></clipPath><clipPath id="clip-path-2"><rect id="Rectangle_38" width="2908" height="1636" data-name="Rectangle 38" transform="translate(-9101 689.701)"/></clipPath><clipPath id="clip-bhenchod_1"><rect width="710" height="576"/></clipPath></defs><g id="bhenchod_1" clip-path="url(#clip-bhenchod_1)" data-name="bhenchod – 1"><g id="bhenchod_1-2" clip-path="url(#clip-path)" data-name="bhenchod – 1" transform="translate(0 -134)"><g id="HItharh" clip-path="url(#clip-path-2)" transform="translate(7970 -972.701)"><path id="Path_717" fill="#1c1c1c" d="M5333.86,3573.71s19.81-25.13,22.567-36.685a217.826,217.826,0,0,1,9.354-27.236s14.174-21.023,15.28-28.726,4.167-13.121,2.16-24.966-5.476-25.13-5.476-25.13l-11.965-48.012-21.2-73.388-20.5-69.055-14.581-44.088a65.221,65.221,0,0,0-14.307-22.009c-10.179-10.179-33.633-31.984-33.633-31.984s-7.153-4.677-19.539-5.227a66.722,66.722,0,0,1-21.734-4.677l-21.734-3.851v-6.328s-3.577-9.078-9.629-12.38-25.036-14.031-25.036-14.031-21.734-7.979-23.386-7.979-23.139-1.878-23.139-1.878,1.285-16.281,1.655-17.1a67.393,67.393,0,0,1,0-13.835c.487-3.529,1.141-7.751,2.906-10.844,2.141.31,4.819,1.13,6.959.82,3.484-.52,6.512.412,8.891-4.627s6.382-13.157,6.531-19.751.631-16.819.631-16.819l2.963-7.119s-2.881-3.67-4.363-5.744a3.432,3.432,0,0,0-4-1.04l-3.939,2.931-4.965,4.519s4.458-21.842,4.965-23.476,2.133-20.35,3.435-24.907-.708-35.9-3.435-41.757.388-11.711-8.119-24.661-15.512-18.976-25.907-27.136-8.908-4.375-15.785-6.3-5.615-2.71-15.449-3.879-19.939-.825-23.792,0-30.263,6.328-30.263,6.328l-19.539,6.6-26.808,14.085-17.087,14.373s-6.072,17.536-7.672,24.3,1.694,20.741,1.694,20.741,6.54,32.832,7.916,37.51,15.146,38.346,15.146,38.346,2.462,1.168-.305,1.168-10.766-1.168-10.766-1.168a19.872,19.872,0,0,0-2.271,5.534,49.9,49.9,0,0,0,0,10.745c.193,1.83,5.028,11.738,5.028,11.738s2.457,9.8,3.13,12.4,3.452,6.356,4.22,8.855,5.922,1.741,9.679,2.126,6.438,4.246,6.438,4.246l10.816,12.28,6.1,16.194,2.539,9.528a31.434,31.434,0,0,0-21.421,2.121,48.245,48.245,0,0,0-19.373,15.954c-2.121,3.093-3.42,16.932-2.121,25.071s-14.814,32.232-14.814,32.232L4936.253,3184s-48.92,26.694-52.556,34.552-7.255,41.707-7.255,41.707l-14.388,41.848-3.28,40.1-13.763,75.2s-6.21,43.394,5.461,78.136,41.206,60.831,41.206,60.831,19.156,18.124,26.137,17.307c8.408-.982,45.438-61.946,44.886-63.407-2.455-6.5,2.769-17.931-3.962-25.318-1.27-1.363-14.389-4.43-25.035-3.029-8.375,1.1-15.06,6.968-9.354,3.029l-7.6,52.039s-108.75,27.949-4.474,37.124S5333.86,3573.71,5333.86,3573.71Z" data-name="Path 717" transform="translate(-12726.088 -1687.24)"/><path id="Path_721" fill="#d9a77b" d="M4958.61,3064.5a61.387,61.387,0,0,1,5.256,10.642c2.129,5.01.749,8.762.624,15.775s1.777,34.677,3,37.616,11.17,26.935,13.821,30.407,11.143,13.468,21.818,19.135,12.429,1.6,20.538,5.885a32.522,32.522,0,0,1,11.9,11.27c.264.129,13.6-3.126,14.15-4.008s.439-8.33,3.82-11.965,19.021-29.8,19.021-29.8,7.024-10.123,8.4-17.386-1.283-6.6,2.722-13.113,6.135-10.894,6.135-10.894l-1-10.519a20.667,20.667,0,0,1-5.133-5.573c-2.567-3.882-2.878-29.428-2.878-29.428l1.566-23.6s2.909-10.319,3.19-10.269-.437,1.752,3.258,1.878,6.631-.8,7.976-1.878a32.379,32.379,0,0,0,7.22-8.114c1.828-4.935,2.271-9.684,3.462-14.36,0,0,3.131-14.338,3.382-16.466s0-8.583,0-8.583-.377-7.012-3.382-8.515-9.665,1.39-11.292,2.643-3.357,5.872-3.357,5.872-1.171-5.524-2.542-12.694-2.937-15.983-2.937-15.983l-10.669-34.464s-2.929-17.106-22.789-29.8-20.384-12.419-46.432-11.927a98.889,98.889,0,0,0-45.662,12.616,92.249,92.249,0,0,0-12.209,12.047c-6.349,7.489-10.25,12.825-10.25,12.825a117.229,117.229,0,0,0-8.8,19.913c-3.42,10.6,0,31.111,0,31.111l1.545,27.235a5.544,5.544,0,0,0-5.209-2.12,21.479,21.479,0,0,0-7.814,2.12c-1.954,1.141-3.255,9.606-2.6,11.234a53.13,53.13,0,0,1,1.314,7.64l2.366,8.1s4.385,12.018,5.685,15.272,6.6,12.288,11.946,14.2,8.238,1.464,9.541,0S4958.61,3064.5,4958.61,3064.5Z" data-name="Path 721" transform="translate(-12688.574 -1671.033)"/><path id="Path_722" fill="#9b6f48" d="M4944.44,3009.53s5.12,11.111,23.359,27.2a311.711,311.711,0,0,0,38.983,29.328c7.512,5.007,15.378,12.161,26.825,17.882s28.851,3.086,28.851,3.086a110.49,110.49,0,0,0,8.833-17.778c3.368-9.1,4.042-9.506,4.639-18.628s-3.305-20.251-3.305-20.251-6.469-15.1-5.754-26.186.89-20.545.89-20.545c-2.958,5.675-3.873,8.686-7.329,17.685s-9.537,15.253-12.147,19.268-16.1,16.488-21.516,17.778-30.57,3.726-43.8-1.638S4944.44,3009.53,4944.44,3009.53Z" data-name="Path 722" transform="translate(-12674.081 -1615.7)"/><path id="Path_723" fill="#221a17" d="M5090.84,2940.34l-12.931-5.778s-6.891-3.68-8.266.445c-1.262,3.787-.241,9.5,0,13.34.064-.174.407,10.906-2.959,14.654s-5.827,5.953-10.506,6.777a123.444,123.444,0,0,1-13.871,1.925,87.657,87.657,0,0,1-12.265,0s-6.328-.274-9.08-4.677-5.773-10.889-8.514-16.547-3.324-5.326-3.691-5.5-12.108-2.633-13.207,2.592-1.825,14.772-1.825,14.772-.858,5.725-2.374,8.889-6.848,5.719-7.948,6.218c-3.03,1.375-5.088,1.7-11.3,2.278s-25.726-.959-28.2-3.985-5.7-12.359-5.971-16.76.21-7.92-2.816-7.92a30.46,30.46,0,0,0-6.336.828l-3.51,1.833-2.8-7.063s15.653-3.72,16.155-4.219,7.162-2.869,10.387-3.419a206.187,206.187,0,0,1,25.964-1.852c10.688-.033,9.821,1.608,16.92,1.5s17.854-1.149,18.991-1.7,5.585-4.249,8.32-5.275,13.4-3.506,13.4-3.506,10.98-2.021,18.815-1.818,10.769,2.506,12.522,2.63,7.013-1.386,13.962,0a50.366,50.366,0,0,1,13.838,5.544Z" data-name="Path 723" transform="translate(-12685.384 -1645.17)"/><path id="Path_724" fill="#d9a77b" d="M4935.29,2946.08c-.487,1.407,1.1,10.273,1.8,12.51s3.227,10.8,7.881,11.438,7.154,1.479,13.91,1.518a67.342,67.342,0,0,0,13.114-1.363s8.73-3.087,10.211-6.261c1.59-4.1,1.636-10.72,1.783-12.59s.984-8.244-2.412-12.025-10.064-3.32-10.064-3.32-14.834.192-24.371,1.445S4935.78,2944.67,4935.29,2946.08Z" data-name="Path 724" transform="translate(-12678.836 -1640.227)"/><path id="Path_724-2" fill="#d9a77b" d="M.091,10.11c-.488,1.407,1.1,10.274,1.8,12.51s3.227,10.8,7.881,11.438,7.154,1.479,13.91,1.518A67.328,67.328,0,0,0,36.8,34.213s7.588-3.181,9.069-6.355a60.135,60.135,0,0,0,2.924-12.5c.147-1.869.984-8.244-2.412-12.025S36.309.018,36.309.018,21.475.21,11.939,1.463.579,8.7.091,10.11Z" data-name="Path 724" transform="translate(-7669.087 1288.407) rotate(-4.012)"/><path id="Path_363" fill="rgba(61,31,23,0.7)" d="M1.711,7.538l4.347,7.053-.071,3.444-.1,4.674,1.78,3.538L3.126,47.1.8,51.065,5.366,47.54s1.969-5.89,1.986-6.32,2.175-7.185,2.175-7.185L10.8,26.866l.133-6.331.124-6.033.124-5.94.059-2.928A7.573,7.573,0,0,0,10.183,2.9,27.263,27.263,0,0,1,8.217,0L3.437,1.555,0,4.716Z" data-name="Path 363" transform="translate(-7590.537 1304.818) rotate(7)"/><path id="Path_726" fill="rgba(61,31,23,0.7)" d="M11.411,6.361l-5.2,5.952L6.3,15.219l.117,3.938-2.12,2.985L9.714,39.749,12.5,43.093,7.037,40.118S4.671,35.147,4.66,34.784s-2.6-6.058-2.6-6.058L.53,22.67.371,17.328l-.148-5.09L.071,7.226,0,4.756a5.386,5.386,0,0,1,1.274-2.31A24.439,24.439,0,0,0,3.623,0L9.346,1.313,13.462,3.98Z" data-name="Path 726" transform="translate(-7767.834 1327.842) rotate(-12.007)"/><path id="Path_364" fill="rgba(90,57,45,0.52)" d="M1.135.58A2.847,2.847,0,0,1,2.725,0,8.37,8.37,0,0,1,5.1.58c.724.407,2.685-.51,2.788,0a1.764,1.764,0,0,0,.741,1.54c-.033-.065.526,1.728.615,1.969.521,1.327,1.7.9,1.081,2.017-.342.618,0,1.436,0,2.644,0,.529-.388,1.459-.248,1.969a28.389,28.389,0,0,1,0,4.185,19.764,19.764,0,0,1,0,4.286c-.206,1.327.2,3.367-1.448,5.1a12.161,12.161,0,0,1-4.241,3.164c-1.136.409-1.557.857-2.388.38a1.764,1.764,0,0,1-.942-2.287,4.6,4.6,0,0,1,1.883-1.869,19.208,19.208,0,0,0,1.448-4.491,29.448,29.448,0,0,0,0-4.286c-.3-.828-.4-3.482-1.44-4.2a26.065,26.065,0,0,1-2.9-2.755,21.722,21.722,0,0,1,0-3.084A15.942,15.942,0,0,1,.571,2.12,2.575,2.575,0,0,1,1.135.58Z" data-name="Path 364" transform="translate(-7598.428 1318.465) rotate(7)"/></g></g></g></svg>