<svg xmlns="http://www.w3.org/2000/svg" xmlns:xlink="http://www.w3.org/1999/xlink" width="710" height="576" viewBox="0 0 710 576"><defs><clipPath id="clip-bhenchod"><rect width="710" height="576"/></clipPath></defs><g id="bhenchod" clip-path="url(#clip-bhenchod)"><g id="Group_18" data-name="Group 18" transform="translate(-629 -127)"><path id="outline" fill="#1c1c1c" d="M1043.928,2843.427l-1.012,3.3,6.766,13.387s-.432,13.775-1.542,16.734-9.059,21.552-9.059,21.552-1.813,6.435-7.361,2.365-6.135-2.825-6.135-2.825l-4.5,22.142s-1.3,25.173-.968,27.867,10.776,17.174,10.776,17.174l11.323,2.61,21.216,7.914s8.25-1.01,12.965,1.684,16,6.567,19.027,10.439,7.83,6.146,8.84,5.809.168-1.179,4.209-1.179,5.725-.842,7.745,2.526-8.924,10.271-5.051,10.776,34.012,11.786,34.012,12.628,20.928,21.886,20.928,21.886,7.5,8.127,14.379,29.383,6.877,13.754,15.629,42.512,10,36.885,15.629,56.891,9.378,45.012,15,71.27,15,58.141,10.628,73.77,2.5,6.251-15.629,31.259-19.38,18.13-37.51,37.51-31.259,18.13-31.259,18.13,1.875-.625,6.877,20.631,6.877,38.761,0,54.39-31.884,7.5-31.884,7.5l-302.584,4.376s-2.586-9.265-1.448-16.095,3.13-15.936,3.13-15.936l-6.829-13.659-4.889-9.789-15.543-5.57-13.074-10.963-26.179-14.512s-7.47-20.915-8.323-22.053-11.951-15.082-11.951-15.082l-1.85-38.842v-32.368s-10.458-10.813-9.319-15.366,3.984-7.683,2.276-13.374-4.268-1.992,0-10.813,22.124-74.554,22.124-74.554l19.99-75.906,11.667-43.537s6.829-15.651,18.781-22.2,13.09-9.959,13.09-9.959l16.789-7.967,8.821-2.561s11.311-10.885,12.734-12.023,11.382-3.415,11.382-3.415l2.561-10.813s10.529-10.813,11.951-11.667,30.163-27.886,30.163-27.886l3.2-10.031-7.257-21.557-5.579-10.163s-6.371-1-10.355-3c-1.844-.922-.761-2.757-1.7-3.779-.656-.658-3.227-.79-3.991-6.75-1.423-11.1-5.976-20.772-6.26-23.9s1.221-11.39,2.928-14.8-2.928-45.379-2.928-45.379l-1.423-23.262s10.244-30.732,13.374-34.431,12.023-15.793,21.7-19.208,23.618-11.951,32.44-13.374,37.562-5.265,41.261-2.419,21.342,6.83,33.293,20.488,23.049,22.267,28.6,39.909-2.7,48.375-3.272,53.212S1043.928,2843.427,1043.928,2843.427Z" transform="translate(0 -2536)"/><path id="face" fill="#d9a77b" d="M914.568,2941.187v52.359l1.326,8.893s4.644,14.6,9.766,18.016,10.776,8.082,10.776,8.082,22.137,10.748,32.665,8.756,31.4-15.007,31.4-15.007,15.232-14.86,16.94-16.282c.693-.578,5.049-3.336,7.472-6.676a106.267,106.267,0,0,0,6.426-10.561l2.74-9.311-.215-2.925-6.08-6.894-7.364-13.084v-32.44l6.26-25.041v-33.364s3.557-26.464,1.992-28.171-1.992-17.6-1.992-17.6a52.42,52.42,0,0,1-2.226-13.447c-.017-1.2.975.129-4.035-10.5s-18-18.141-18-18.141-11.766-3.071-19.164-1.932-16.121,2.217-23.235,5.632-26.748,4.268-31.586,7.4-15.392,8.365-15.392,8.365-9.08,7.286-11.641,9.278-3.13,19.919-3.415,23.9-3.415,1.422-3.415,11.1v24.116l1.268,17.061,2.146,10.043,1.992,17.927Z" transform="translate(0 -2536)"/><path id="face_shadin" fill="#9b6f48" d="M1018.718,2930.947c-.569,1.992-3.984,11.667-10.813,17.358s-13.09,13.943-18.212,17.073-8.537,3.984-13.09,6.545-11.411.19-15.556,0-11.527-2.133-15.8-4.983-11.786-7.383-16.579-10.75a80.061,80.061,0,0,1-11.139-9.455,35.547,35.547,0,0,1-3.368-4.145l1.166-1.943s6.865,5.6,9.973,7.657,17.485,10.735,19.946,12.03,1.166,2.574,9.066,5.043,14.9,2.21,18.133.915,15.543-7.124,18.263-10.1,6.476-5.439,9.714-9.455,11.786-12.434,14.377-16.708a40.047,40.047,0,0,0,3.238-6.087Z" data-name="face shadin" transform="translate(0 -2536)"/><path id="tshirt" fill="#2f3546" d="M1026.116,2966.61a47.381,47.381,0,0,0,2.942,4.837,61.666,61.666,0,0,0,4.531,5.477s.168,2.526-2.021,7.577-3.066,7.479-10.054,16.068-17.9,18.29-17.9,18.29-12.683,8.564-23.4,12.283-10.052,3.057-19.481,2.594-12.342-1.079-18.235-4.446-16.5-11.281-19.7-14.48-4.209-4.041-4.209-4.041,4.546,16.669,5.556,24.246,6.567,22.9,7.409,24.583,10.1,17.68,13.807,22.226,9.6,18.016,11.113,20.037,7.267,11.549,11.282,18.414,7.512,12.823,8.289,13.729,8.419-10.362,12.434-19.428,11.565-22.084,15.14-30.891,5.389-14.506,11.476-20.464,12.225-15.737,16.474-22.213,5.188-13.471,10.11-22.148,4.015-7.9,4.4-14.118-5.893-25.969-5.893-25.969-7.912-9.92-8.62-10.43A39.685,39.685,0,0,0,1026.116,2966.61Z" transform="translate(0 -2536)"/><g id="ears"><path id="Path_642" fill="#d9a77b" d="M1050.429,2851.489c.842,6.23,1.179,8.756,0,14.48s-2.694,19.027-4.209,24.415-3.7,7.408-6.735,10.271-4.325,2.571-6.471,2.264a13.519,13.519,0,0,1-6.361-3.3c-.459-.584-2.341-7.77-1.648-14.359.52-4.95,3.5-8.959,4.4-13.859,1.984-10.746,5.181-14.766,5.181-14.766s3.617-9.4,7.253-10.75S1049.587,2845.259,1050.429,2851.489Z" data-name="Path 642" transform="translate(0 -2536)"/><path id="Path_363" fill="rgba(61,31,23,0.7)" d="M19566.969,1198.324l2.975,5.516v6.277l1.227,2.761-2.713,16.068-1.488,3.033,2.975-2.664s1.227-4.528,1.227-4.861,1.338-5.527,1.338-5.527l.744-5.527v-16.415a6.688,6.688,0,0,0-.744-2.131,23.113,23.113,0,0,1-1.338-2.264l-3.143,1.132-2.23,2.4Z" data-name="Path 363" transform="translate(-18233.578 -3250.032) rotate(7)"/><path id="Path_364" fill="rgba(90,57,45,0.52)" d="M19555.055,1231.487a2.461,2.461,0,0,1,1.316-.448,7.314,7.314,0,0,1,1.961.448c.6.315,2.217-.394,2.3,0a1.325,1.325,0,0,0,.615,1.19c-.027-.05.434,1.334.508,1.515.43,1.025,1.406.691.893,1.558-.283.477,0,1.109,0,2.042,0,.408-.32,1.126-.205,1.516.256.867-.086,2.443,0,3.231a14.281,14.281,0,0,1,0,3.31c-.17,1.025.168,2.6-1.2,3.94a10.039,10.039,0,0,1-3.5,2.443c-.937.315-1.285.662-1.973.294a1.333,1.333,0,0,1-.777-1.766,3.706,3.706,0,0,1,1.555-1.444s1.281-2.759,1.2-3.468.258-2.68,0-3.31-.34-2.68-1.2-3.231a20.961,20.961,0,0,1-2.391-2.128,15.693,15.693,0,0,1,0-2.381,11.613,11.613,0,0,1,.426-2.122A1.9,1.9,0,0,1,19555.055,1231.487Z" data-name="Path 364" transform="translate(-17641.439 -5593.325) rotate(14)"/><path id="Path_643" fill="#d9a77b" d="M896.245,2880.875c-.777-2.461-6.038-17.916-6.3-18.952s-2.59-6.088-2.59-6.088-3.5-1.554-5.569,0-2.2,4.534-2.461,10.621a52.863,52.863,0,0,0,2.461,17.1c1.425,4.533,2.979,15.8,5.569,18.651s3.238,5.181,5.7,6.476,5.828-.518,6.735,0S896.245,2880.875,896.245,2880.875Z" data-name="Path 643" transform="translate(0 -2536)"/><path id="Path_645" fill="#6e4738" d="M.479,22.352c.377.151.881-.223.881-.223a6.091,6.091,0,0,0,.977-1.315c.243-.56,1.375-.693,1.305-1.081a1.965,1.965,0,0,1-.01-1.341c0,.058-.157-1.381-.169-1.576-.064-1.106.589-1.27.036-1.794-.3-.288-.335-.979-.614-1.8a7.669,7.669,0,0,1-.574-1.243,25.953,25.953,0,0,0-.973-2.854A18.162,18.162,0,0,0,.34,6.2c-.4-.825-.688-2.374-1.865-2.918a4.311,4.311,0,0,0-2.722-.514c-.624.161-.928.019-1.2.666a1.879,1.879,0,0,0,.09,1.925A1.742,1.742,0,0,0-4.044,5.9a12.44,12.44,0,0,1,1.723,2.5,26.548,26.548,0,0,1,1,2.922c.045.678.617,2.525.3,3.414a29.477,29.477,0,0,0-.713,3,20.338,20.338,0,0,0,.717,2.1,11.971,11.971,0,0,0,.881,1.674S.1,22.2.479,22.352Z" data-name="Path 645" transform="matrix(-0.999, -0.035, 0.035, -0.999, 892.271, 361.851)"/></g><path id="Path_648" fill="none" stroke="#4a4a4a" stroke-width="1" d="M1108.706,3182.737c-1.09.817,5.994,23.976,7.084,35.692s1.635,29.426,2.18,37.872,2.861,15.121,8.582,28.2a56.709,56.709,0,0,1,4.359,25.884" data-name="Path 648" transform="translate(0 -2536)"/><path id="Path_649" fill="#222" d="M895.239,2877.987l-.954-15.931.954-27.855,2.576-2.385,1.812-22.537a4.4,4.4,0,0,1,1.908-3.243c1.908-1.431,11.352-8.967,11.352-8.967l15.247-7.627,8.545-3.547,18.863-2.9,17.9-5.32,12.9-1.935,16.767,1.935a44.282,44.282,0,0,1,11.446,10c4.514,5.965,10.278,17.492,10.278,17.492l1.773,13.542,2.257,18.54-2.257,40.745,2.746-5.419a19.2,19.2,0,0,1,1.086-6.469c1.259-3.951,4.6-11.116,4.6-11.116s4.841-8.424,5.189-8.641,3.43-1.3,3.43-1.3l5.7-37.192s3.53-12.783.954-21.083-7.679-22.036-8.443-22.609-22.036-25.566-22.036-25.566l-19.795-13.689s-11.448-5.82-14.882-6.583-39.446,2.814-39.446,2.814l-20.892,8.419s-7.822,4.006-9.349,4.293-4.961,0-9.349,4.007-16.217,15.645-16.5,18.984-11.686,31.624-11.686,31.624l1.717,23.253,3.124,43.739a20.615,20.615,0,0,1,2.576,0c1.145.1,1.049-.191,1.812.763S895.239,2877.987,895.239,2877.987Z" data-name="Path 649" transform="translate(0 -2536)"/></g></g></svg>