<svg xmlns="http://www.w3.org/2000/svg" xmlns:xlink="http://www.w3.org/1999/xlink" width="2344.527" height="2638.917" viewBox="0 0 2344.527 2638.917">
  <defs>
    <linearGradient id="linear-gradient" x1="0.057" y1="0.226" x2="0.701" y2="0.715" gradientUnits="objectBoundingBox">
      <stop offset="0" stop-color="#085ba2"/>
      <stop offset="1" stop-color="#69e"/>
    </linearGradient>
    <linearGradient id="linear-gradient-2" x1="0.911" y1="0.619" x2="0.014" y2="0.963" gradientUnits="objectBoundingBox">
      <stop offset="0"/>
      <stop offset="0.747" stop-color="#407fc7"/>
      <stop offset="1" stop-color="#fff"/>
    </linearGradient>
    <linearGradient id="linear-gradient-3" x1="1.41" y1="0.033" x2="-0.101" y2="0.916" gradientUnits="objectBoundingBox">
      <stop offset="0"/>
      <stop offset="1" stop-color="#fff"/>
    </linearGradient>
    <linearGradient id="linear-gradient-4" x1="-0.214" y1="0.584" x2="0.919" y2="0.363" gradientUnits="objectBoundingBox">
      <stop offset="0" stop-color="#fff"/>
      <stop offset="1" stop-color="#000711"/>
    </linearGradient>
  </defs>
  <g id="Group_8" data-name="Group 8" transform="translate(-453.5 -224.633)">
    <path id="Subtraction_1" data-name="Subtraction 1" d="M-982.507,11638.41c-18.186-14.864-36.206-30.422-53.558-46.241s-34.5-32.317-50.962-49.04-32.7-34.126-48.247-51.722-30.836-35.871-45.413-54.284c-14.6-18.438-28.882-37.523-42.462-56.728-13.611-19.251-26.865-39.12-39.391-59.054-12.567-20-24.747-40.607-36.2-61.26-11.494-20.724-22.561-42.037-32.895-63.349-10.377-21.4-20.292-43.378-29.469-65.318-9.224-22.051-17.946-44.649-25.924-67.169-8.028-22.658-15.518-45.84-22.261-68.9-6.789-23.215-13.006-46.939-18.479-70.516-5.511-23.74-10.416-47.969-14.579-72.013-4.194-24.223-7.747-48.914-10.56-73.389-2.837-24.674-5-49.789-6.423-74.647-1.439-25.078-2.168-50.576-2.168-75.787,0-22.3.57-44.856,1.7-67.052,1.117-22.024,2.809-44.289,5.032-66.173,2.206-21.723,4.994-43.662,8.286-65.209,3.269-21.4,7.124-42.984,11.459-64.166,4.306-21.043,9.2-42.253,14.55-63.04,5.316-20.664,11.224-41.468,17.558-61.833,6.3-20.253,13.191-40.622,20.486-60.542,7.255-19.815,15.1-39.723,23.33-59.171,8.186-19.353,16.965-38.772,26.094-57.719,9.088-18.861,18.769-37.764,28.775-56.184,9.966-18.346,20.523-36.7,31.375-54.564,10.819-17.808,22.223-35.594,33.892-52.867,11.644-17.235,23.866-34.424,36.328-51.087,12.445-16.64,25.459-33.2,38.682-49.223s26.994-31.919,40.954-47.277,28.476-30.586,43.144-45.253,29.9-29.19,45.252-43.145,31.274-27.746,47.279-40.954c16.026-13.227,32.588-26.241,49.223-38.683,16.659-12.458,33.847-24.681,51.086-36.327,17.28-11.674,35.067-23.077,52.867-33.893,17.869-10.856,36.228-21.413,54.566-31.375,18.426-10.009,37.328-19.689,56.183-28.774,18.946-9.129,38.366-17.908,57.718-26.094,19.445-8.225,39.353-16.074,59.171-23.33,19.914-7.292,40.283-14.185,60.543-20.486,20.365-6.334,41.169-12.241,61.832-17.558,20.794-5.351,42-10.245,63.04-14.55,21.179-4.334,42.767-8.189,64.166-11.459,21.555-3.293,43.495-6.081,65.21-8.286,21.874-2.222,44.138-3.915,66.172-5.032,22.192-1.125,44.752-1.7,67.052-1.7,19.186,0,38.593.422,57.683,1.255,18.952.825,38.144,2.079,57.042,3.728,18.753,1.637,37.711,3.706,56.349,6.15,18.5,2.426,37.209,5.293,55.6,8.52,18.278,3.207,36.718,6.853,54.806,10.837,17.982,3.96,36.136,8.369,53.957,13.1,17.712,4.706,35.563,9.859,53.056,15.316,17.413,5.432,34.943,11.313,52.1,17.478,34.118,12.257,68.145,26.129,101.136,41.23,32.739,14.986,65.272,31.557,96.7,49.252,31.232,17.587,62.132,36.716,91.84,56.855,29.581,20.054,58.707,41.6,86.567,64.042l-446.609,564.489c-.248.647-25.259,65.892-63.509,164.061-35.139,90.184-88.751,226.857-144.61,365.824-62.781,156.187-115.549,283.382-156.838,378.053-24.514,56.207-45.2,101.42-61.482,134.383-8.754,17.721-16.4,32.243-22.74,43.164-6.625,11.42-12,19.226-15.971,23.2-3.88,3.88-10.053,8.689-18.348,14.3-7.941,5.367-18.041,11.608-30.02,18.551-22.319,12.936-51.981,28.78-88.163,47.1-61.26,31.011-142.2,69.628-240.56,114.78C-800.289,11559.585-964.358,11630.572-982.507,11638.41Z" transform="translate(1915 -8973.493)" fill="url(#linear-gradient)"/>
    <path id="Path_46" data-name="Path 46" d="M2236.969-5435.871s4.954,11.571,22.617,7.586,827.961-230.153,827.961-230.153,53.3-23.633,84.133-39.623,1262.174-746.077,1262.174-746.077a86.076,86.076,0,0,0,28.072-8.837c13.516-7.278,40.029-17.155,49.386-46.267s-76.281-1525.741-76.419-1525.778c-.091-.024-3.451-28.194-18.595-37.187s-38.806-.709-39.279,0-146.95,147.916-146.95,147.916l-723.92,1800.58Z" transform="translate(-1714 8291)" fill="#274886"/>
    <path id="Path_45" data-name="Path 45" d="M2236.953-5435.875l765.436-226.23s48.06-5.47,215.684-104.716,1214-759.359,1214-759.359,22.314,34.373,32.473,25.776,18,15.686,16.047-69.884-84.843-1435.2-84.843-1435.2,8.537-66.839-33.272-36.361-959.619,686.415-959.619,686.415-29.187,15.848-29.578,83.054,8.215,1138.033,8.215,1138.033Z" transform="translate(-1714 8291)" fill="#a2ceff"/>
    <path id="Path_53" data-name="Path 53" d="M2236.953-5435.875l765.436-226.23s48.06-5.47,215.684-104.716,1214-759.359,1214-759.359,22.314,34.373,32.473,25.776,18,15.686,16.047-69.884-84.843-1435.2-84.843-1435.2,8.537-66.839-33.272-36.361-959.619,686.415-959.619,686.415-29.187,15.848-29.578,83.054,8.215,1138.033,8.215,1138.033Z" transform="translate(-1714 8291)" opacity="0.3" fill="url(#linear-gradient-2)"/>
    <path id="Path_49" data-name="Path 49" d="M3381.465-6134.3,4431.574-6525.8s24.814,43.468,39.614,34.98,19.959-34.98,19.959-34.98l-80.424-1490.539s-6.341-70.629-48.729-38.238-965.333,698.606-965.333,698.606-29.592,17.6-29.992,79.578S3381.465-6134.3,3381.465-6134.3Z" transform="translate(-1714 8291)" fill="#6992d4"/>
    <path id="Path_52" data-name="Path 52" d="M3381.465-6134.3,4431.574-6525.8s24.814,43.468,39.614,34.98,19.959-34.98,19.959-34.98l-80.424-1490.539s-6.341-70.629-48.729-38.238-965.333,698.606-965.333,698.606-29.592,17.6-29.992,79.578S3381.465-6134.3,3381.465-6134.3Z" transform="translate(-1714 8291)" opacity="0.24" fill="url(#linear-gradient-3)"/>
    <path id="Path_47" data-name="Path 47" d="M4446.287-6633.454l-73.1-1319.153-966.236,693.269,12.354,1045.583Z" transform="translate(-1724 8276)" fill="#022253"/>
    <path id="Path_48" data-name="Path 48" d="M2715.728-5721.535l568.2-335.827,941.459-355.062-645.141,395.09Z" transform="translate(-1714 8291)" fill="#486eb5"/>
    <path id="Path_51" data-name="Path 51" d="M4446.287-6633.454l-73.1-1319.153-966.236,693.269,12.354,1045.583Z" transform="translate(-1724 8276)" opacity="0.26" fill="url(#linear-gradient-4)"/>
  </g>
</svg>
